<mxfile host="app.diagrams.net" modified="2024-02-19T01:38:42.912Z" agent="Mozilla/5.0 (Macintosh; Intel Mac OS X 10_15_7) AppleWebKit/537.36 (KHTML, like Gecko) Chrome/121.0.0.0 Safari/537.36" etag="01QnI3nkBeJTX7HXFHSU" version="23.1.5" type="device">
  <diagram name="librados" id="viFRejHJCz3s1xsSrzRM">
    <mxGraphModel dx="2358" dy="2365" grid="1" gridSize="10" guides="1" tooltips="1" connect="1" arrows="1" fold="1" page="1" pageScale="1" pageWidth="850" pageHeight="1100" math="0" shadow="0">
      <root>
        <mxCell id="0" />
        <mxCell id="1" parent="0" />
        <mxCell id="ZKJRVpyheqLy9PjCR0JE-5" value="" style="rounded=1;whiteSpace=wrap;html=1;fillColor=#d5e8d4;strokeColor=none;" parent="1" vertex="1">
          <mxGeometry x="40" y="1010" width="1880" height="370" as="geometry" />
        </mxCell>
        <mxCell id="ZKJRVpyheqLy9PjCR0JE-4" value="" style="rounded=1;whiteSpace=wrap;html=1;fillColor=#ffcccc;strokeColor=none;" parent="1" vertex="1">
          <mxGeometry x="40" y="650" width="1880" height="280" as="geometry" />
        </mxCell>
        <mxCell id="ZKJRVpyheqLy9PjCR0JE-3" value="" style="rounded=1;whiteSpace=wrap;html=1;fillColor=#dae8fc;strokeColor=none;" parent="1" vertex="1">
          <mxGeometry x="40" y="280" width="3830" height="350" as="geometry" />
        </mxCell>
        <mxCell id="3kMBdD84PV1oY0vSfjga-5" value="&lt;font face=&quot;Courier New&quot; color=&quot;#ffffff&quot; style=&quot;font-size: 14px;&quot;&gt;&lt;b&gt;class Rados&lt;/b&gt;&lt;/font&gt;" style="swimlane;fontStyle=0;childLayout=stackLayout;horizontal=1;startSize=26;fillColor=#0066CC;horizontalStack=0;resizeParent=1;resizeParentMax=0;resizeLast=0;collapsible=1;marginBottom=0;whiteSpace=wrap;html=1;strokeColor=#23445d;" parent="1" vertex="1">
          <mxGeometry x="80" y="357" width="950" height="240" as="geometry" />
        </mxCell>
        <mxCell id="3kMBdD84PV1oY0vSfjga-6" value="&lt;font face=&quot;Courier New&quot;&gt;RadosClient *client;&lt;/font&gt;" style="text;align=center;verticalAlign=top;spacingLeft=4;spacingRight=4;overflow=hidden;rotatable=0;points=[[0,0.5],[1,0.5]];portConstraint=eastwest;whiteSpace=wrap;html=1;" parent="3kMBdD84PV1oY0vSfjga-5" vertex="1">
          <mxGeometry y="26" width="950" height="214" as="geometry" />
        </mxCell>
        <mxCell id="3kMBdD84PV1oY0vSfjga-9" value="&lt;font face=&quot;Courier New&quot;&gt;init()&lt;br&gt;init2()&lt;/font&gt;" style="rounded=0;whiteSpace=wrap;html=1;strokeColor=none;fillColor=#FFFFFF;align=left;spacingLeft=10;spacingRight=10;" parent="1" vertex="1">
          <mxGeometry x="107.5" y="437" width="80" height="50" as="geometry" />
        </mxCell>
        <mxCell id="3kMBdD84PV1oY0vSfjga-25" value="&lt;font face=&quot;Courier New&quot;&gt;constructor&lt;/font&gt;" style="rounded=0;whiteSpace=wrap;html=1;fillColor=#FFFFFF;strokeColor=none;align=left;spacingLeft=10;spacingRight=10;" parent="1" vertex="1">
          <mxGeometry x="93.13" y="1230" width="108.75" height="50" as="geometry" />
        </mxCell>
        <mxCell id="3kMBdD84PV1oY0vSfjga-27" value="初始化RadosClient* client，RadosClient以及相关的类，如IoCtxImpl等，是librados的实际实现。" style="text;html=1;strokeColor=none;fillColor=none;align=left;verticalAlign=middle;whiteSpace=wrap;rounded=0;" parent="1" vertex="1">
          <mxGeometry x="90" y="507" width="160" height="30" as="geometry" />
        </mxCell>
        <mxCell id="3kMBdD84PV1oY0vSfjga-28" value="&lt;font face=&quot;Courier New&quot;&gt;connect()&lt;/font&gt;" style="rounded=0;whiteSpace=wrap;html=1;strokeColor=none;fillColor=#FFFFFF;align=left;spacingLeft=10;spacingRight=10;" parent="1" vertex="1">
          <mxGeometry x="280" y="437" width="80" height="50" as="geometry" />
        </mxCell>
        <mxCell id="3kMBdD84PV1oY0vSfjga-30" value="&lt;font face=&quot;Courier New&quot;&gt;connect()&lt;/font&gt;" style="rounded=0;whiteSpace=wrap;html=1;fillColor=#FFFFFF;strokeColor=none;align=left;spacingLeft=10;spacingRight=10;" parent="1" vertex="1">
          <mxGeometry x="273.75" y="1230" width="92.5" height="50" as="geometry" />
        </mxCell>
        <mxCell id="3kMBdD84PV1oY0vSfjga-35" value="没有依赖C CAP,直接调用&lt;br&gt;RadosClient::connect();" style="text;html=1;strokeColor=none;fillColor=none;align=left;verticalAlign=middle;whiteSpace=wrap;rounded=0;" parent="1" vertex="1">
          <mxGeometry x="260" y="507" width="160" height="30" as="geometry" />
        </mxCell>
        <mxCell id="3kMBdD84PV1oY0vSfjga-37" value="&lt;font face=&quot;Courier New&quot;&gt;ioctx_create()&lt;br&gt;ioctx_create2()&lt;br&gt;&lt;/font&gt;" style="rounded=0;whiteSpace=wrap;html=1;strokeColor=none;fillColor=#FFFFFF;align=left;spacingLeft=10;spacingRight=10;" parent="1" vertex="1">
          <mxGeometry x="863.44" y="437" width="140" height="50" as="geometry" />
        </mxCell>
        <mxCell id="3kMBdD84PV1oY0vSfjga-38" value="" style="edgeStyle=orthogonalEdgeStyle;rounded=0;orthogonalLoop=1;jettySize=auto;html=1;exitX=0.5;exitY=1;exitDx=0;exitDy=0;entryX=0.5;entryY=0;entryDx=0;entryDy=0;" parent="1" source="3kMBdD84PV1oY0vSfjga-37" target="3kMBdD84PV1oY0vSfjga-36" edge="1">
          <mxGeometry relative="1" as="geometry">
            <mxPoint x="558" y="527" as="sourcePoint" />
            <mxPoint x="558" y="770" as="targetPoint" />
          </mxGeometry>
        </mxCell>
        <mxCell id="3kMBdD84PV1oY0vSfjga-39" value="&lt;font face=&quot;Courier New&quot;&gt;create_ioctx()&lt;/font&gt;" style="rounded=0;whiteSpace=wrap;html=1;fillColor=#FFFFFF;strokeColor=none;align=left;spacingLeft=10;spacingRight=10;" parent="1" vertex="1">
          <mxGeometry x="870.31" y="1230" width="126.25" height="50" as="geometry" />
        </mxCell>
        <mxCell id="3kMBdD84PV1oY0vSfjga-42" value="&lt;font face=&quot;Courier New&quot; color=&quot;#ffffff&quot; style=&quot;font-size: 14px;&quot;&gt;&lt;b&gt;class IoCtx&lt;/b&gt;&lt;/font&gt;" style="swimlane;fontStyle=0;childLayout=stackLayout;horizontal=1;startSize=26;fillColor=#0066CC;horizontalStack=0;resizeParent=1;resizeParentMax=0;resizeLast=0;collapsible=1;marginBottom=0;whiteSpace=wrap;html=1;strokeColor=#82b366;" parent="1" vertex="1">
          <mxGeometry x="1060" y="357" width="830" height="70" as="geometry" />
        </mxCell>
        <mxCell id="3kMBdD84PV1oY0vSfjga-43" value="&lt;font face=&quot;Courier New&quot;&gt;IoCtxImpl *io_ctx_impl;&lt;/font&gt;" style="text;align=center;verticalAlign=top;spacingLeft=4;spacingRight=4;overflow=hidden;rotatable=0;points=[[0,0.5],[1,0.5]];portConstraint=eastwest;whiteSpace=wrap;html=1;strokeColor=default;" parent="3kMBdD84PV1oY0vSfjga-42" vertex="1">
          <mxGeometry y="26" width="830" height="44" as="geometry" />
        </mxCell>
        <mxCell id="3kMBdD84PV1oY0vSfjga-44" value="返回class IoCtx的实例;" style="text;html=1;strokeColor=none;fillColor=none;align=left;verticalAlign=middle;whiteSpace=wrap;rounded=0;" parent="1" vertex="1">
          <mxGeometry x="846.88" y="507" width="160" height="30" as="geometry" />
        </mxCell>
        <mxCell id="3kMBdD84PV1oY0vSfjga-47" value="&lt;font face=&quot;Courier New&quot;&gt;mon_command()&lt;br&gt;mgr_command()&lt;br&gt;osd_command()&lt;br&gt;pg_command()&lt;br&gt;&lt;/font&gt;" style="rounded=0;whiteSpace=wrap;html=1;strokeColor=none;fillColor=#FFFFFF;align=left;spacingLeft=10;spacingRight=10;" parent="1" vertex="1">
          <mxGeometry x="470" y="437" width="130" height="80" as="geometry" />
        </mxCell>
        <mxCell id="3kMBdD84PV1oY0vSfjga-48" value="&lt;font face=&quot;Courier New&quot;&gt;mon_command()&lt;br&gt;mgr_command()&lt;br&gt;osd_command()&lt;br&gt;pg_command()&lt;br&gt;&lt;/font&gt;" style="rounded=0;whiteSpace=wrap;html=1;fillColor=#FFFFFF;strokeColor=none;align=left;spacingLeft=10;spacingRight=10;" parent="1" vertex="1">
          <mxGeometry x="470" y="1230" width="130" height="80" as="geometry" />
        </mxCell>
        <mxCell id="3kMBdD84PV1oY0vSfjga-51" value="admin command；&lt;br&gt;没有依赖C CAP,直接调用&lt;br&gt;RadosClient::connect();" style="text;html=1;strokeColor=none;fillColor=none;align=left;verticalAlign=middle;whiteSpace=wrap;rounded=0;" parent="1" vertex="1">
          <mxGeometry x="470" y="530" width="160" height="30" as="geometry" />
        </mxCell>
        <mxCell id="3kMBdD84PV1oY0vSfjga-53" value="&lt;font face=&quot;Courier New&quot;&gt;pool_create()&lt;br style=&quot;border-color: var(--border-color);&quot;&gt;pool_delete()&lt;br style=&quot;border-color: var(--border-color);&quot;&gt;pool_lookup()&lt;br style=&quot;border-color: var(--border-color);&quot;&gt;pool_list()&lt;br&gt;get_pool_stats()&lt;br&gt;&lt;/font&gt;" style="rounded=0;whiteSpace=wrap;html=1;strokeColor=none;fillColor=#FFFFFF;align=left;spacingLeft=10;spacingRight=10;" parent="1" vertex="1">
          <mxGeometry x="660" y="437" width="130" height="93" as="geometry" />
        </mxCell>
        <mxCell id="3kMBdD84PV1oY0vSfjga-55" value="&lt;font face=&quot;Courier New&quot;&gt;pool_create()&lt;br style=&quot;border-color: var(--border-color);&quot;&gt;pool_delete()&lt;br style=&quot;border-color: var(--border-color);&quot;&gt;lookup_pool()&lt;br style=&quot;border-color: var(--border-color);&quot;&gt;pool_list()&lt;br&gt;get_pool_stats()&lt;br&gt;&lt;/font&gt;" style="rounded=0;whiteSpace=wrap;html=1;fillColor=#FFFFFF;strokeColor=none;align=left;spacingLeft=10;spacingRight=10;" parent="1" vertex="1">
          <mxGeometry x="660" y="1230" width="130" height="93" as="geometry" />
        </mxCell>
        <mxCell id="3kMBdD84PV1oY0vSfjga-58" value="没有依赖C CAP,直接调用&lt;br&gt;RadosClient::connect();" style="text;html=1;strokeColor=none;fillColor=none;align=left;verticalAlign=middle;whiteSpace=wrap;rounded=0;" parent="1" vertex="1">
          <mxGeometry x="650" y="537" width="160" height="30" as="geometry" />
        </mxCell>
        <mxCell id="ZKJRVpyheqLy9PjCR0JE-1" value="" style="endArrow=classic;html=1;rounded=0;exitX=0.5;exitY=1;exitDx=0;exitDy=0;" parent="1" source="3kMBdD84PV1oY0vSfjga-9" target="3kMBdD84PV1oY0vSfjga-10" edge="1">
          <mxGeometry width="50" height="50" relative="1" as="geometry">
            <mxPoint x="770" y="780" as="sourcePoint" />
            <mxPoint x="820" y="730" as="targetPoint" />
          </mxGeometry>
        </mxCell>
        <mxCell id="3kMBdD84PV1oY0vSfjga-10" value="&lt;font face=&quot;Courier New&quot;&gt;rados_create()&lt;br&gt;rados_create2()&lt;/font&gt;" style="rounded=0;whiteSpace=wrap;html=1;fillColor=#FFFFFF;strokeColor=none;align=left;spacingLeft=10;spacingRight=10;" parent="1" vertex="1">
          <mxGeometry x="80" y="760" width="135" height="50" as="geometry" />
        </mxCell>
        <mxCell id="3kMBdD84PV1oY0vSfjga-29" value="&lt;font face=&quot;Courier New&quot;&gt;rados_connect()&lt;/font&gt;" style="rounded=0;whiteSpace=wrap;html=1;fillColor=#FFFFFF;strokeColor=none;align=left;spacingLeft=10;spacingRight=10;" parent="1" vertex="1">
          <mxGeometry x="225" y="760" width="135" height="50" as="geometry" />
        </mxCell>
        <mxCell id="3kMBdD84PV1oY0vSfjga-36" value="&lt;font face=&quot;Courier New&quot;&gt;rados_ioctx_create()&lt;br&gt;rados_ioctx_create2()&lt;br&gt;&lt;/font&gt;" style="rounded=0;whiteSpace=wrap;html=1;fillColor=#FFFFFF;strokeColor=none;align=left;spacingLeft=10;spacingRight=10;" parent="1" vertex="1">
          <mxGeometry x="846.88" y="760" width="173.12" height="50" as="geometry" />
        </mxCell>
        <mxCell id="3kMBdD84PV1oY0vSfjga-46" value="&lt;font face=&quot;Courier New&quot;&gt;rados_mon_command()&lt;br&gt;rados_mgr_command()&lt;br&gt;rados_osd_command()&lt;br&gt;rados_pg_command()&lt;br&gt;&lt;/font&gt;" style="rounded=0;whiteSpace=wrap;html=1;fillColor=#FFFFFF;strokeColor=none;align=left;spacingLeft=10;spacingRight=10;" parent="1" vertex="1">
          <mxGeometry x="440" y="745" width="190" height="80" as="geometry" />
        </mxCell>
        <mxCell id="3kMBdD84PV1oY0vSfjga-54" value="&lt;font face=&quot;Courier New&quot;&gt;rados_pool_create()&lt;br style=&quot;border-color: var(--border-color);&quot;&gt;rados_pool_delete()&lt;br style=&quot;border-color: var(--border-color);&quot;&gt;rados_pool_lookup()&lt;br style=&quot;border-color: var(--border-color);&quot;&gt;rados_pool_list()&lt;br&gt;rados_ioctx_pool_stat()&lt;br&gt;&lt;/font&gt;" style="rounded=0;whiteSpace=wrap;html=1;fillColor=#FFFFFF;strokeColor=none;align=left;spacingLeft=10;spacingRight=10;" parent="1" vertex="1">
          <mxGeometry x="650" y="745" width="180" height="93" as="geometry" />
        </mxCell>
        <mxCell id="ZKJRVpyheqLy9PjCR0JE-6" value="&lt;b&gt;C++ API&lt;br&gt;librados.hpp /&amp;nbsp;librados_cxx.cc&lt;/b&gt;" style="text;html=1;strokeColor=none;fillColor=none;align=center;verticalAlign=middle;whiteSpace=wrap;rounded=0;" parent="1" vertex="1">
          <mxGeometry x="605" y="300" width="450" height="30" as="geometry" />
        </mxCell>
        <mxCell id="ZKJRVpyheqLy9PjCR0JE-7" value="&lt;b&gt;C API&lt;br&gt;librados.h&amp;nbsp;/&amp;nbsp;librados_c.cc&lt;/b&gt;" style="text;html=1;strokeColor=none;fillColor=none;align=center;verticalAlign=middle;whiteSpace=wrap;rounded=0;" parent="1" vertex="1">
          <mxGeometry x="605" y="670" width="450" height="30" as="geometry" />
        </mxCell>
        <mxCell id="ZKJRVpyheqLy9PjCR0JE-8" value="&lt;b&gt;librados实现层&lt;/b&gt;" style="text;html=1;strokeColor=none;fillColor=none;align=center;verticalAlign=middle;whiteSpace=wrap;rounded=0;" parent="1" vertex="1">
          <mxGeometry x="605" y="1020" width="450" height="30" as="geometry" />
        </mxCell>
        <mxCell id="Sx64GfmKYyqnjucC5kq5-13" value="" style="group" parent="1" vertex="1" connectable="0">
          <mxGeometry x="440" y="-120" width="692" height="250" as="geometry" />
        </mxCell>
        <mxCell id="Sx64GfmKYyqnjucC5kq5-3" value="" style="shape=corner;whiteSpace=wrap;html=1;dx=210;dy=70;direction=west;fillColor=#FFCCCC;strokeColor=none;" parent="Sx64GfmKYyqnjucC5kq5-13" vertex="1">
          <mxGeometry x="222" width="470" height="150" as="geometry" />
        </mxCell>
        <mxCell id="Sx64GfmKYyqnjucC5kq5-5" value="&lt;b&gt;C API&lt;br&gt;librados.h&amp;nbsp;/&amp;nbsp;librados_c.cc&lt;/b&gt;" style="text;html=1;strokeColor=none;fillColor=none;align=center;verticalAlign=middle;whiteSpace=wrap;rounded=0;" parent="Sx64GfmKYyqnjucC5kq5-13" vertex="1">
          <mxGeometry x="482" y="20" width="210" height="30" as="geometry" />
        </mxCell>
        <mxCell id="Sx64GfmKYyqnjucC5kq5-6" value="" style="rounded=1;whiteSpace=wrap;html=1;fillColor=#d5e8d4;strokeColor=none;" parent="Sx64GfmKYyqnjucC5kq5-13" vertex="1">
          <mxGeometry y="163" width="692" height="90" as="geometry" />
        </mxCell>
        <mxCell id="Sx64GfmKYyqnjucC5kq5-8" value="" style="shape=corner;whiteSpace=wrap;html=1;dx=210;dy=70;direction=east;fillColor=#dae8fc;strokeColor=none;" parent="Sx64GfmKYyqnjucC5kq5-13" vertex="1">
          <mxGeometry width="470" height="150" as="geometry" />
        </mxCell>
        <mxCell id="Sx64GfmKYyqnjucC5kq5-4" value="&lt;b&gt;C++ API&lt;br&gt;librados.hpp /&amp;nbsp;librados_cxx.cc&lt;br&gt;&lt;/b&gt;" style="text;html=1;strokeColor=none;fillColor=none;align=center;verticalAlign=middle;whiteSpace=wrap;rounded=0;" parent="Sx64GfmKYyqnjucC5kq5-13" vertex="1">
          <mxGeometry x="52.5" y="20" width="365" height="30" as="geometry" />
        </mxCell>
        <mxCell id="Sx64GfmKYyqnjucC5kq5-9" value="&lt;b&gt;librados实现层&lt;br&gt;（C++代码，class RadosClient, IoCtxImpl, ...）&lt;br&gt;&lt;/b&gt;" style="text;html=1;strokeColor=none;fillColor=none;align=center;verticalAlign=middle;whiteSpace=wrap;rounded=0;" parent="Sx64GfmKYyqnjucC5kq5-13" vertex="1">
          <mxGeometry x="121" y="193" width="450" height="30" as="geometry" />
        </mxCell>
        <mxCell id="Sx64GfmKYyqnjucC5kq5-10" value="&lt;b style=&quot;border-color: var(--border-color);&quot;&gt;C++代码&lt;br&gt;部分调用C API;&lt;br&gt;&lt;b style=&quot;border-color: var(--border-color);&quot;&gt;部分直接调用librados实现层;&lt;/b&gt;&lt;br&gt;&lt;/b&gt;" style="text;html=1;strokeColor=none;fillColor=none;align=center;verticalAlign=middle;whiteSpace=wrap;rounded=0;" parent="Sx64GfmKYyqnjucC5kq5-13" vertex="1">
          <mxGeometry x="25" y="100" width="170" height="30" as="geometry" />
        </mxCell>
        <mxCell id="Sx64GfmKYyqnjucC5kq5-11" value="&lt;b style=&quot;border-color: var(--border-color);&quot;&gt;extern &quot;C&quot;&lt;br&gt;{ C++代码，调用librados实现层 }&lt;br&gt;&lt;/b&gt;" style="text;html=1;strokeColor=none;fillColor=none;align=center;verticalAlign=middle;whiteSpace=wrap;rounded=0;" parent="Sx64GfmKYyqnjucC5kq5-13" vertex="1">
          <mxGeometry x="400" y="100" width="190" height="30" as="geometry" />
        </mxCell>
        <mxCell id="3kMBdD84PV1oY0vSfjga-14" value="&lt;font face=&quot;Courier New&quot; style=&quot;font-size: 14px;&quot;&gt;&lt;b&gt;&amp;nbsp;class&amp;nbsp;RadosClient&lt;/b&gt;&lt;/font&gt;" style="swimlane;fontStyle=0;childLayout=stackLayout;horizontal=1;startSize=26;fillColor=#6d8764;horizontalStack=0;resizeParent=1;resizeParentMax=0;resizeLast=0;collapsible=1;marginBottom=0;whiteSpace=wrap;html=1;strokeColor=#3A5431;fontColor=#ffffff;container=0;" parent="1" vertex="1">
          <mxGeometry x="80" y="1050" width="950" height="300" as="geometry" />
        </mxCell>
        <mxCell id="3kMBdD84PV1oY0vSfjga-15" value="&lt;font face=&quot;Courier New&quot;&gt;MonClient monclient;&lt;/font&gt;" style="text;strokeColor=none;fillColor=none;align=center;verticalAlign=top;spacingLeft=4;spacingRight=4;overflow=hidden;rotatable=0;points=[[0,0.5],[1,0.5]];portConstraint=eastwest;whiteSpace=wrap;html=1;" parent="1" vertex="1">
          <mxGeometry x="100" y="1076" width="910" height="26" as="geometry" />
        </mxCell>
        <mxCell id="3kMBdD84PV1oY0vSfjga-16" value="&lt;font face=&quot;Courier New&quot;&gt;MgrClient mgrclient;&lt;/font&gt;" style="text;strokeColor=none;fillColor=none;align=center;verticalAlign=top;spacingLeft=4;spacingRight=4;overflow=hidden;rotatable=0;points=[[0,0.5],[1,0.5]];portConstraint=eastwest;whiteSpace=wrap;html=1;" parent="1" vertex="1">
          <mxGeometry x="100" y="1102" width="910" height="26" as="geometry" />
        </mxCell>
        <mxCell id="3kMBdD84PV1oY0vSfjga-45" value="&lt;font face=&quot;Courier New&quot;&gt;Objecter *objecter;&lt;/font&gt;" style="text;strokeColor=none;fillColor=none;align=center;verticalAlign=top;spacingLeft=4;spacingRight=4;overflow=hidden;rotatable=0;points=[[0,0.5],[1,0.5]];portConstraint=eastwest;whiteSpace=wrap;html=1;" parent="1" vertex="1">
          <mxGeometry x="100" y="1128" width="910" height="26" as="geometry" />
        </mxCell>
        <mxCell id="3kMBdD84PV1oY0vSfjga-17" value="&lt;font face=&quot;Courier New&quot;&gt;Messenger *messenger;&lt;br&gt;&lt;/font&gt;" style="text;strokeColor=none;fillColor=none;align=center;verticalAlign=top;spacingLeft=4;spacingRight=4;overflow=hidden;rotatable=0;points=[[0,0.5],[1,0.5]];portConstraint=eastwest;whiteSpace=wrap;html=1;" parent="1" vertex="1">
          <mxGeometry x="100" y="1154" width="910" height="26" as="geometry" />
        </mxCell>
        <mxCell id="3kMBdD84PV1oY0vSfjga-32" value="" style="edgeStyle=orthogonalEdgeStyle;rounded=0;orthogonalLoop=1;jettySize=auto;html=1;entryX=0.5;entryY=0;entryDx=0;entryDy=0;" parent="1" source="3kMBdD84PV1oY0vSfjga-29" target="3kMBdD84PV1oY0vSfjga-30" edge="1">
          <mxGeometry relative="1" as="geometry">
            <mxPoint x="290" y="810" as="sourcePoint" />
            <mxPoint x="157" y="1151" as="targetPoint" />
            <Array as="points">
              <mxPoint x="280" y="970" />
              <mxPoint x="320" y="970" />
            </Array>
          </mxGeometry>
        </mxCell>
        <mxCell id="3kMBdD84PV1oY0vSfjga-50" value="" style="edgeStyle=orthogonalEdgeStyle;rounded=0;orthogonalLoop=1;jettySize=auto;html=1;entryX=0.5;entryY=0;entryDx=0;entryDy=0;exitX=0.25;exitY=1;exitDx=0;exitDy=0;" parent="1" source="3kMBdD84PV1oY0vSfjga-46" target="3kMBdD84PV1oY0vSfjga-48" edge="1">
          <mxGeometry relative="1" as="geometry">
            <mxPoint x="290" y="820" as="sourcePoint" />
            <mxPoint x="330" y="1169" as="targetPoint" />
            <Array as="points">
              <mxPoint x="488" y="970" />
              <mxPoint x="535" y="970" />
            </Array>
          </mxGeometry>
        </mxCell>
        <mxCell id="3kMBdD84PV1oY0vSfjga-57" value="" style="edgeStyle=orthogonalEdgeStyle;rounded=0;orthogonalLoop=1;jettySize=auto;html=1;entryX=0.5;entryY=0;entryDx=0;entryDy=0;" parent="1" source="3kMBdD84PV1oY0vSfjga-54" target="3kMBdD84PV1oY0vSfjga-55" edge="1">
          <mxGeometry relative="1" as="geometry">
            <mxPoint x="498" y="835" as="sourcePoint" />
            <mxPoint x="545" y="1169" as="targetPoint" />
            <Array as="points">
              <mxPoint x="690" y="970" />
              <mxPoint x="725" y="970" />
            </Array>
          </mxGeometry>
        </mxCell>
        <mxCell id="3kMBdD84PV1oY0vSfjga-33" value="" style="edgeStyle=orthogonalEdgeStyle;rounded=0;orthogonalLoop=1;jettySize=auto;html=1;exitX=0.5;exitY=1;exitDx=0;exitDy=0;entryX=0.5;entryY=0;entryDx=0;entryDy=0;" parent="1" source="3kMBdD84PV1oY0vSfjga-28" target="3kMBdD84PV1oY0vSfjga-30" edge="1">
          <mxGeometry relative="1" as="geometry">
            <mxPoint x="158" y="527" as="sourcePoint" />
            <mxPoint x="158" y="770" as="targetPoint" />
          </mxGeometry>
        </mxCell>
        <mxCell id="3kMBdD84PV1oY0vSfjga-49" value="" style="edgeStyle=orthogonalEdgeStyle;rounded=0;orthogonalLoop=1;jettySize=auto;html=1;exitX=0.5;exitY=1;exitDx=0;exitDy=0;" parent="1" source="3kMBdD84PV1oY0vSfjga-47" target="3kMBdD84PV1oY0vSfjga-48" edge="1">
          <mxGeometry relative="1" as="geometry">
            <mxPoint x="330" y="527" as="sourcePoint" />
            <mxPoint x="330" y="1169" as="targetPoint" />
          </mxGeometry>
        </mxCell>
        <mxCell id="3kMBdD84PV1oY0vSfjga-56" value="" style="edgeStyle=orthogonalEdgeStyle;rounded=0;orthogonalLoop=1;jettySize=auto;html=1;exitX=0.5;exitY=1;exitDx=0;exitDy=0;" parent="1" source="3kMBdD84PV1oY0vSfjga-53" target="3kMBdD84PV1oY0vSfjga-55" edge="1">
          <mxGeometry relative="1" as="geometry">
            <mxPoint x="545" y="557" as="sourcePoint" />
            <mxPoint x="545" y="1169" as="targetPoint" />
          </mxGeometry>
        </mxCell>
        <mxCell id="ZKJRVpyheqLy9PjCR0JE-2" value="" style="endArrow=classic;html=1;rounded=0;exitX=0.5;exitY=1;exitDx=0;exitDy=0;" parent="1" source="3kMBdD84PV1oY0vSfjga-10" target="3kMBdD84PV1oY0vSfjga-25" edge="1">
          <mxGeometry width="50" height="50" relative="1" as="geometry">
            <mxPoint x="158" y="527" as="sourcePoint" />
            <mxPoint x="158" y="770" as="targetPoint" />
          </mxGeometry>
        </mxCell>
        <mxCell id="3kMBdD84PV1oY0vSfjga-40" value="" style="edgeStyle=orthogonalEdgeStyle;rounded=0;orthogonalLoop=1;jettySize=auto;html=1;exitX=0.5;exitY=1;exitDx=0;exitDy=0;entryX=0.5;entryY=0;entryDx=0;entryDy=0;" parent="1" source="3kMBdD84PV1oY0vSfjga-36" target="3kMBdD84PV1oY0vSfjga-39" edge="1">
          <mxGeometry relative="1" as="geometry">
            <mxPoint x="558" y="820" as="sourcePoint" />
            <mxPoint x="557" y="1151" as="targetPoint" />
          </mxGeometry>
        </mxCell>
        <mxCell id="wcSakvaWzD5mWGnujgn4-1" value="&lt;font face=&quot;Courier New&quot; style=&quot;font-size: 14px;&quot;&gt;&lt;b&gt;class&amp;nbsp;IoCtxImpl&lt;/b&gt;&lt;/font&gt;" style="swimlane;fontStyle=0;childLayout=stackLayout;horizontal=1;startSize=26;fillColor=#6d8764;horizontalStack=0;resizeParent=1;resizeParentMax=0;resizeLast=0;collapsible=1;marginBottom=0;whiteSpace=wrap;html=1;strokeColor=#3A5431;fontColor=#ffffff;container=0;" vertex="1" parent="1">
          <mxGeometry x="1060" y="1050" width="830" height="76" as="geometry" />
        </mxCell>
        <mxCell id="wcSakvaWzD5mWGnujgn4-3" value="&lt;font face=&quot;Courier New&quot;&gt;create&lt;br&gt;remove&lt;br&gt;aio_remove&lt;br&gt;&lt;/font&gt;" style="rounded=0;whiteSpace=wrap;html=1;strokeColor=none;fillColor=#FFFFFF;align=left;spacingLeft=10;spacingRight=10;" vertex="1" parent="1">
          <mxGeometry x="1070" y="437" width="90" height="63" as="geometry" />
        </mxCell>
        <mxCell id="wcSakvaWzD5mWGnujgn4-5" value="&lt;font face=&quot;Courier New&quot;&gt;create&lt;br&gt;remove&lt;br&gt;&lt;/font&gt;" style="rounded=0;whiteSpace=wrap;html=1;strokeColor=none;fillColor=#FFFFFF;align=left;spacingLeft=10;spacingRight=10;" vertex="1" parent="1">
          <mxGeometry x="1080" y="1230" width="70" height="50" as="geometry" />
        </mxCell>
        <mxCell id="wcSakvaWzD5mWGnujgn4-7" value="&lt;font face=&quot;Courier New&quot;&gt;write&lt;br&gt;write_full&lt;br&gt;writesame&lt;br&gt;&lt;/font&gt;&lt;font face=&quot;Courier New&quot;&gt;aio_write&lt;br&gt;aio_write_full&lt;br&gt;aio_writesame&lt;br&gt;&lt;/font&gt;" style="rounded=0;whiteSpace=wrap;html=1;strokeColor=none;fillColor=#FFFFFF;align=left;spacingLeft=10;spacingRight=10;" vertex="1" parent="1">
          <mxGeometry x="1440" y="437" width="130" height="113" as="geometry" />
        </mxCell>
        <mxCell id="wcSakvaWzD5mWGnujgn4-10" value="&lt;font face=&quot;Courier New&quot;&gt;getxattr&lt;br&gt;getxattrs&lt;br&gt;setxattr&lt;br&gt;rmxattr&lt;br&gt;aio_getxattr&lt;br&gt;aio_getxattrs&lt;br&gt;aio_setxattr&lt;br&gt;aio_rmxattr&lt;br&gt;&lt;/font&gt;" style="rounded=0;whiteSpace=wrap;html=1;strokeColor=none;fillColor=#FFFFFF;align=left;spacingLeft=10;spacingRight=10;" vertex="1" parent="1">
          <mxGeometry x="1700" y="437" width="130" height="143" as="geometry" />
        </mxCell>
        <mxCell id="wcSakvaWzD5mWGnujgn4-11" value="&lt;font face=&quot;Courier New&quot;&gt;omap_get_header&lt;br&gt;omap_get_vals&lt;br&gt;omap_get_vals2&lt;br&gt;omap_get_keys&lt;br&gt;omap_get_keys2&lt;br&gt;omap_get_vals_by_keys&lt;br&gt;omap_set_header&lt;br&gt;omap_set&lt;br&gt;omap_clear&lt;br&gt;omap_rm_keys&lt;br&gt;&lt;/font&gt;" style="rounded=0;whiteSpace=wrap;html=1;strokeColor=none;fillColor=#FFFFFF;align=left;spacingLeft=10;spacingRight=10;" vertex="1" parent="1">
          <mxGeometry x="1860" y="437" width="180" height="179.5" as="geometry" />
        </mxCell>
        <mxCell id="wcSakvaWzD5mWGnujgn4-12" value="&lt;font face=&quot;Courier New&quot;&gt;exec&lt;br&gt;aio_exec&lt;br&gt;&lt;/font&gt;" style="rounded=0;whiteSpace=wrap;html=1;strokeColor=none;fillColor=#FFFFFF;align=left;spacingLeft=10;spacingRight=10;" vertex="1" parent="1">
          <mxGeometry x="2340" y="437" width="80" height="53" as="geometry" />
        </mxCell>
        <mxCell id="wcSakvaWzD5mWGnujgn4-13" value="&lt;font face=&quot;Courier New&quot;&gt;stat&lt;br&gt;stat2&lt;br&gt;aio_stat&lt;br&gt;aio_stat2&lt;br&gt;&lt;/font&gt;" style="rounded=0;whiteSpace=wrap;html=1;strokeColor=none;fillColor=#FFFFFF;align=left;spacingLeft=10;spacingRight=10;" vertex="1" parent="1">
          <mxGeometry x="1180" y="437" width="90" height="73" as="geometry" />
        </mxCell>
        <mxCell id="wcSakvaWzD5mWGnujgn4-14" value="&lt;font face=&quot;Courier New&quot;&gt;operate&lt;br&gt;aio_operate&lt;br&gt;&lt;/font&gt;" style="rounded=0;whiteSpace=wrap;html=1;strokeColor=none;fillColor=#FFFFFF;align=left;spacingLeft=10;spacingRight=10;" vertex="1" parent="1">
          <mxGeometry x="2440" y="437" width="100" height="53" as="geometry" />
        </mxCell>
        <mxCell id="wcSakvaWzD5mWGnujgn4-15" value="&lt;font face=&quot;Courier New&quot;&gt;selfmanaged_snap_set_write_ctx&lt;br&gt;selfmanaged_snap_create&lt;br&gt;aio_selfmanaged_snap_create&lt;br&gt;selfmanaged_snap_remove&lt;br&gt;aio_selfmanaged_snap_remove&lt;br&gt;selfmanaged_snap_rollback&lt;br&gt;&lt;/font&gt;" style="rounded=0;whiteSpace=wrap;html=1;strokeColor=none;fillColor=#FFFFFF;align=left;spacingLeft=10;spacingRight=10;" vertex="1" parent="1">
          <mxGeometry x="2570" y="437" width="240" height="110" as="geometry" />
        </mxCell>
        <mxCell id="wcSakvaWzD5mWGnujgn4-16" value="&lt;font face=&quot;Courier New&quot;&gt;lock_exclusive&lt;br&gt;lock_shared&lt;br&gt;unlock&lt;br&gt;break_lock&lt;br&gt;list_lockers&lt;br&gt;aio_unlock&lt;br&gt;&lt;/font&gt;" style="rounded=0;whiteSpace=wrap;html=1;strokeColor=none;fillColor=#FFFFFF;align=left;spacingLeft=10;spacingRight=10;" vertex="1" parent="1">
          <mxGeometry x="2835" y="437" width="140" height="103" as="geometry" />
        </mxCell>
        <mxCell id="wcSakvaWzD5mWGnujgn4-17" value="&lt;font face=&quot;Courier New&quot;&gt;get_last_version&lt;br&gt;set_assert_version&lt;br&gt;&lt;/font&gt;" style="rounded=0;whiteSpace=wrap;html=1;strokeColor=none;fillColor=#FFFFFF;align=left;spacingLeft=10;spacingRight=10;" vertex="1" parent="1">
          <mxGeometry x="3160" y="437" width="150" height="53" as="geometry" />
        </mxCell>
        <mxCell id="wcSakvaWzD5mWGnujgn4-18" value="&lt;font face=&quot;Courier New&quot;&gt;mapext&lt;br&gt;cmpext&lt;br&gt;aio_cmpext&lt;br&gt;&lt;/font&gt;" style="rounded=0;whiteSpace=wrap;html=1;strokeColor=none;fillColor=#FFFFFF;align=left;spacingLeft=10;spacingRight=10;" vertex="1" parent="1">
          <mxGeometry x="2200" y="437" width="110" height="63" as="geometry" />
        </mxCell>
        <mxCell id="wcSakvaWzD5mWGnujgn4-19" value="&lt;font face=&quot;Courier New&quot;&gt;watch&lt;br&gt;watch2&lt;br&gt;watch3&lt;br&gt;list_watchers&lt;br&gt;unwatch&lt;br&gt;unwatch2&lt;br&gt;watch_check&lt;br&gt;aio_watch&lt;br&gt;aio_watch2&lt;br&gt;aio_unwatch&lt;br&gt;&lt;br&gt;&lt;/font&gt;" style="rounded=0;whiteSpace=wrap;html=1;strokeColor=none;fillColor=#FFFFFF;align=left;spacingLeft=10;spacingRight=10;" vertex="1" parent="1">
          <mxGeometry x="3520" y="437" width="140" height="173" as="geometry" />
        </mxCell>
        <mxCell id="wcSakvaWzD5mWGnujgn4-20" value="&lt;font face=&quot;Courier New&quot;&gt;notify&lt;br&gt;notify2&lt;br&gt;notify_ack&lt;br&gt;set_notify_timeout&lt;br&gt;aio_notify&lt;br&gt;&lt;/font&gt;" style="rounded=0;whiteSpace=wrap;html=1;strokeColor=none;fillColor=#FFFFFF;align=left;spacingLeft=10;spacingRight=10;" vertex="1" parent="1">
          <mxGeometry x="2480" y="720" width="160" height="200" as="geometry" />
        </mxCell>
        <mxCell id="wcSakvaWzD5mWGnujgn4-21" value="&lt;font face=&quot;Courier New&quot;&gt;locator_set_key&lt;br&gt;&lt;br&gt;&lt;/font&gt;" style="rounded=0;whiteSpace=wrap;html=1;strokeColor=none;fillColor=#FFFFFF;align=left;spacingLeft=10;spacingRight=10;" vertex="1" parent="1">
          <mxGeometry x="2290" y="580" width="160" height="70" as="geometry" />
        </mxCell>
        <mxCell id="wcSakvaWzD5mWGnujgn4-22" value="&lt;font face=&quot;Courier New&quot;&gt;set_namespace&lt;br&gt;get_namespace&lt;br&gt;&lt;/font&gt;" style="rounded=0;whiteSpace=wrap;html=1;strokeColor=none;fillColor=#FFFFFF;align=left;spacingLeft=10;spacingRight=10;" vertex="1" parent="1">
          <mxGeometry x="2330" y="876" width="160" height="200" as="geometry" />
        </mxCell>
        <mxCell id="wcSakvaWzD5mWGnujgn4-23" value="&lt;font face=&quot;Courier New&quot;&gt;get_object_hash_position&lt;br&gt;get_object_hash_position2&lt;br&gt;&lt;/font&gt;" style="rounded=0;whiteSpace=wrap;html=1;strokeColor=none;fillColor=#FFFFFF;align=left;spacingLeft=10;spacingRight=10;" vertex="1" parent="1">
          <mxGeometry x="2090" y="1110" width="160" height="200" as="geometry" />
        </mxCell>
        <mxCell id="wcSakvaWzD5mWGnujgn4-24" value="&lt;font face=&quot;Courier New&quot;&gt;get_object_pg_hash_position&lt;br&gt;get_object_pg_hash_position2&lt;br&gt;&lt;/font&gt;" style="rounded=0;whiteSpace=wrap;html=1;strokeColor=none;fillColor=#FFFFFF;align=left;spacingLeft=10;spacingRight=10;" vertex="1" parent="1">
          <mxGeometry x="2380" y="1120" width="250" height="200" as="geometry" />
        </mxCell>
        <mxCell id="wcSakvaWzD5mWGnujgn4-25" value="&lt;font face=&quot;Courier New&quot;&gt;read&lt;br&gt;sparse_read&lt;br&gt;checksum&lt;br&gt;&lt;/font&gt;&lt;font face=&quot;Courier New&quot;&gt;aio_read&lt;br&gt;aio_sparse_read&lt;/font&gt;&lt;font face=&quot;Courier New&quot;&gt;&lt;br&gt;&lt;/font&gt;" style="rounded=0;whiteSpace=wrap;html=1;strokeColor=none;fillColor=#FFFFFF;align=left;spacingLeft=10;spacingRight=10;" vertex="1" parent="1">
          <mxGeometry x="1290" y="437" width="130" height="93" as="geometry" />
        </mxCell>
        <mxCell id="wcSakvaWzD5mWGnujgn4-26" value="&lt;font face=&quot;Courier New&quot;&gt;aio_cmpext&lt;br&gt;&lt;/font&gt;" style="rounded=0;whiteSpace=wrap;html=1;strokeColor=none;fillColor=#FFFFFF;align=left;spacingLeft=10;spacingRight=10;" vertex="1" parent="1">
          <mxGeometry x="1380" y="160" width="110" height="63" as="geometry" />
        </mxCell>
        <mxCell id="wcSakvaWzD5mWGnujgn4-27" value="&lt;font face=&quot;Courier New&quot;&gt;append&lt;br&gt;trunc&lt;br&gt;&lt;/font&gt;" style="rounded=0;whiteSpace=wrap;html=1;strokeColor=none;fillColor=#FFFFFF;align=left;spacingLeft=10;spacingRight=10;" vertex="1" parent="1">
          <mxGeometry x="1590" y="437" width="90" height="63" as="geometry" />
        </mxCell>
        <mxCell id="wcSakvaWzD5mWGnujgn4-28" value="&lt;font face=&quot;Courier New&quot;&gt;tmap_update&lt;br&gt;&lt;/font&gt;" style="rounded=0;whiteSpace=wrap;html=1;strokeColor=none;fillColor=#FFFFFF;align=left;spacingLeft=10;spacingRight=10;" vertex="1" parent="1">
          <mxGeometry x="2070" y="437" width="110" height="43" as="geometry" />
        </mxCell>
        <mxCell id="wcSakvaWzD5mWGnujgn4-29" value="&lt;font face=&quot;Courier New&quot;&gt;hit_set_list&lt;br&gt;hit_set_get&lt;br&gt;&lt;/font&gt;" style="rounded=0;whiteSpace=wrap;html=1;strokeColor=none;fillColor=#FFFFFF;align=left;spacingLeft=10;spacingRight=10;" vertex="1" parent="1">
          <mxGeometry x="3000" y="437" width="140" height="53" as="geometry" />
        </mxCell>
        <mxCell id="wcSakvaWzD5mWGnujgn4-30" value="&lt;font face=&quot;Courier New&quot;&gt;aio_flush&lt;br&gt;aio_flush_async&lt;br&gt;aio_cancel&lt;br&gt;&lt;/font&gt;" style="rounded=0;whiteSpace=wrap;html=1;strokeColor=none;fillColor=#FFFFFF;align=left;spacingLeft=10;spacingRight=10;" vertex="1" parent="1">
          <mxGeometry x="3340" y="437" width="150" height="53" as="geometry" />
        </mxCell>
      </root>
    </mxGraphModel>
  </diagram>
</mxfile>
